<svg width="40" height="46" viewBox="0 0 40 46" fill="none" xmlns="http://www.w3.org/2000/svg">
<path d="M38.4163 35.9077C27.6468 46.6773 12.3526 46.6773 1.58301 35.9077C4.09002 33.4007 8.84753 30.6216 15.2152 28.0746V22.9804C15.2152 22.9804 12.6681 22.0864 12.6681 16.6128C10.1211 16.6128 10.1211 11.5187 12.6681 11.5187C12.6681 10.7851 8.4018 4.05325 13.7659 5.15103C15.0394 0.0569153 27.5939 0.0569153 28.8674 5.15103C29.6264 8.18458 27.7263 10.9812 27.7263 11.5187C30.1944 11.5187 29.5194 16.6128 27.7467 16.6128C27.7467 22.0864 25.4034 22.9804 25.4034 22.9804V28.0746C31.771 30.6216 35.1669 32.7471 38.4163 35.9077Z" stroke="#555555" stroke-width="2.20833" stroke-linecap="round" stroke-linejoin="round"/>
</svg>
